<svg id="Calque_1" data-name="Calque 1" xmlns="http://www.w3.org/2000/svg" viewBox="0 0 1080 1080"><defs><style>.cls-1{fill:#d3958b;}.cls-2{fill:#d2880c;}.cls-3{fill:#dc4813;}.cls-4{fill:#7ba0ad;}</style></defs><title>Logo_V8</title><path class="cls-1" d="M546.2,421.49c1.87-39.3,3.17-173.87-14.61-194.9-4.85-5.74-45.39,30.63-64.78,43.7-11.22,7.56-63.48,34.91-68.59,89.36s8.89,168.59,54.16,199.28C479.42,577.26,543.72,473.44,546.2,421.49Z"/><path class="cls-2" d="M221.42,364.33c-48.57,78-43.51,146.29-35.7,207.77s40.07,120.18,90,156.88,117.32,49.82,176.42,31.18c33.59-10.6,64.85-31.92,81.76-62.81s17.15-71.8-4.2-99.82c-14.79-19.4-37.5-30.72-57.38-44.87-37.26-26.54-73.26-130.56-64.95-175.54,11.72-63.44,41.66-96.26,59.43-106.37,14.74-8.38-33.29-20-106.08-4.19C293,281.26,242,331.35,221.42,364.33Z"/><path class="cls-3" d="M460.75,542c-5.49-21.69,15.15-65.9,37.38-92.48s55.13-39.81,89.72-41.76c43.67-2.46,86.32,20.8,113.91,54.75s41.45,77.37,46.51,120.81c6.25,53.75,4.84,109.75-18.89,159.74-17.06,35.94-34.38,73-64.75,98.69-52.55,44.49-152.34,69.84-220.82,62.71C293,888.78,308.56,768,345.75,758.44c118.08-30.27,141.09-101.8,145.35-135.5C496.78,578,460.75,542,460.75,542Z"/><path class="cls-4" d="M729.54,579.2c-26-23.14-59.22-14.54-99.23-16.34-27.9-1.27-57.86-.81-81-16.52-25.63-17.43-36-52.09-29.93-82.49s26.12-56.54,50.24-76C618.71,348.31,689.49,334,747.1,359.49c58.33,25.84,97,80.49,123.6,138.48,12.35,26.93,20.53,59.32,25.72,88.49s3.88,60.15-8.35,87.13-39.88,52.38-65.94,64.8c-17.37,8.28-101.48,24.42-92.75,4.69,9.24-20.88,14.78-47.29,17.34-63.05C754.45,632.35,755.73,602.47,729.54,579.2Z"/><g id="_2_rose" data-name="2 rose"><path class="cls-1" d="M653.7,392c73-3,175.86,32.08,211.4,94.17,28.86,50.43,70.24-197.39-41.69-282.48C781.65,172,720.73,171.58,662.79,176.88c-65.18,6-132.68,41.46-163.07,68.3-32.59,28.78-45.77,48.17-44.55,56s28.57,174,40.4,151S574.57,395.28,653.7,392Z"/></g></svg>